<?xml version="1.0" encoding="utf-8"?>
<!-- Generator: Adobe Illustrator 24.1.1, SVG Export Plug-In . SVG Version: 6.00 Build 0)  -->
<svg version="1.1" id="Ebene_1" xmlns="http://www.w3.org/2000/svg" xmlns:xlink="http://www.w3.org/1999/xlink" x="0px" y="0px"
	 viewBox="0 0 2227.3 2804.1" style="enable-background:new 0 0 2227.3 2804.1;" xml:space="preserve">
<g>
	<path d="M217.4,1679.4c48.1,0,86.5-17.8,86.5-92V853.9h151.1v722.5c0,192.3-103,241.7-217,241.7c-27.5,0-48.1,0-72.8-2.7v-137.4
		C181.7,1679.4,201,1679.4,217.4,1679.4z"/>
	<path d="M702.3,1595.6c0,68.7,30.2,93.4,78.3,93.4c48.1,0,78.3-24.7,78.3-93.4V853.9h142.8V1586c0,153.8-76.9,241.7-225.3,241.7
		s-225.3-87.9-225.3-241.7V853.9h151.1V1595.6z"/>
	<path d="M1308,843c147,0,222.5,87.9,222.5,241.7v30.2h-142.8v-39.8c0-68.7-27.5-94.8-75.5-94.8c-48.1,0-75.5,26.1-75.5,94.8
		c0,197.8,295.3,234.9,295.3,509.6c0,153.8-76.9,241.7-225.3,241.7s-225.3-87.9-225.3-241.7v-59.1h142.8v68.7
		c0,68.7,30.2,93.4,78.3,93.4s78.3-24.7,78.3-93.4c0-197.8-295.3-234.9-295.3-509.6C1085.5,930.9,1161,843,1308,843z"/>
	<path d="M2041.5,853.9v137.4h-158v824.1h-151.1V991.3h-158V853.9H2041.5z"/>
</g>
</svg>
