<?xml version="1.0" encoding="utf-8"?>
<!-- Generator: Adobe Illustrator 24.1.1, SVG Export Plug-In . SVG Version: 6.00 Build 0)  -->
<svg version="1.1" id="Ebene_1" xmlns="http://www.w3.org/2000/svg" xmlns:xlink="http://www.w3.org/1999/xlink" x="0px" y="0px"
	 viewBox="0 0 2227.3 2804.1" style="enable-background:new 0 0 2227.3 2804.1;" xml:space="preserve">
<style type="text/css">
	.st0{fill:#F7AD6A;}
	.st1{fill:#788FC8;}
	.st2{fill:#375499;}
	.st3{fill:none;stroke:#000000;stroke-width:40;stroke-miterlimit:10;}
</style>
<g>
	<g>
		<path class="st0" d="M1074.3,1358c-189.7,0-343.5-153.8-343.5-343.5S884.6,671,1074.3,671s343.5,153.8,343.5,343.5
			c0,91.1-36.2,178.5-100.6,242.9C1252.9,1322,1165.5,1358.2,1074.3,1358z"/>
		<path d="M1074.3,691c178,0.3,322.2,144.8,321.9,322.8c-0.3,178-144.8,322.2-322.8,321.9c-178-0.3-322.2-144.8-321.9-322.8
			c0.2-129.4,77.7-246.1,196.9-296.5C988.2,699.6,1031.1,690.9,1074.3,691 M1074.3,651c-200.8,0-363.5,162.7-363.5,363.5
			S873.5,1378,1074.3,1378s363.5-162.7,363.5-363.5S1275.1,651,1074.3,651z"/>
	</g>
	<g>
		<g>
			<path class="st1" d="M451.6,1421c-60.2,0-116.8-23.7-159.4-66.7c-88.2-89.4-88.2-233.1,0-322.5c42.6-43,99.2-66.7,159.4-66.7
				s116.8,23.7,159.4,66.7c88.2,89.4,88.2,233.1,0,322.5C568.4,1397.3,511.8,1421,451.6,1421z"/>
			<path d="M451.6,980c28.1-0.1,56,5.6,81.8,16.7c25.1,10.7,47.8,26.2,66.9,45.6c82.6,83.5,82.6,217.9,0,301.4
				c-19.1,19.4-41.9,34.9-66.9,45.6c-52.3,22.2-111.4,22.2-163.7,0c-25.1-10.7-47.8-26.2-66.9-45.6c-82.6-83.5-82.6-217.9,0-301.4
				c19.1-19.4,41.9-34.9,66.9-45.6C395.6,985.6,423.5,979.9,451.6,980 M451.6,950C318.7,950,211,1058.8,211,1193
				s107.7,243,240.6,243s240.6-108.8,240.6-243S584.4,950,451.6,950z"/>
		</g>
		<g>
			<path class="st1" d="M1475.6,2055c-60.2,0-116.8-23.7-159.4-66.7c-88.2-89.4-88.2-233.1,0-322.5c42.6-43,99.2-66.7,159.4-66.7
				s116.8,23.7,159.4,66.7c88.2,89.4,88.2,233.1,0,322.5C1592.4,2031.3,1535.8,2055,1475.6,2055z"/>
			<path d="M1475.6,1614c28.1-0.1,56,5.6,81.8,16.7c25.1,10.7,47.8,26.2,66.9,45.6c82.6,83.5,82.6,217.9,0,301.4
				c-19.1,19.4-41.9,34.9-66.9,45.6c-52.3,22.2-111.4,22.2-163.7,0c-25.1-10.7-47.8-26.2-66.9-45.6c-82.6-83.5-82.6-217.9,0-301.4
				c19.1-19.4,41.9-34.9,66.9-45.6C1419.6,1619.6,1447.5,1613.9,1475.6,1614 M1475.6,1584c-132.9,0-240.6,108.8-240.6,243
				s107.7,243,240.6,243s240.6-108.8,240.6-243S1608.5,1584,1475.6,1584z"/>
		</g>
		<g>
			<path class="st1" d="M1585.9,773c-60.2,0-116.8-23.7-159.4-66.7c-88.2-89.4-88.2-233.1,0-322.5c42.6-43,99.2-66.7,159.4-66.7
				s116.8,23.7,159.4,66.7c88.2,89.4,88.2,233.1,0,322.5C1702.7,749.3,1646.1,773,1585.9,773z"/>
			<path d="M1585.9,332c28.1-0.1,56,5.6,81.8,16.7c25.1,10.7,47.8,26.2,66.9,45.6c82.6,83.5,82.6,217.9,0,301.4
				c-19.1,19.4-41.9,34.9-66.9,45.6c-52.3,22.2-111.4,22.2-163.7,0c-25.1-10.7-47.8-26.2-66.9-45.6c-82.6-83.5-82.6-217.9,0-301.4
				c19.1-19.4,41.9-34.9,66.9-45.6C1529.9,337.6,1557.7,331.9,1585.9,332 M1585.9,302c-132.9,0-240.6,108.8-240.6,243
				s107.7,243,240.6,243s240.6-108.8,240.6-243S1718.7,302,1585.9,302L1585.9,302z"/>
		</g>
		<g>
			<path class="st2" d="M996.9,471c-60.2,0-116.8-23.7-159.4-66.7c-88.2-89.4-88.2-233.1,0-322.5C880,38.7,936.6,15,996.9,15
				c60.2,0,116.8,23.7,159.4,66.7c88.2,89.4,88.2,233.1,0,322.5C1113.7,447.3,1057.1,471,996.9,471z"/>
			<path d="M996.9,30c28.1-0.1,56,5.6,81.8,16.7c25.1,10.7,47.8,26.2,66.9,45.6c82.6,83.5,82.6,217.9,0,301.4
				c-19.1,19.4-41.9,34.9-66.9,45.6c-52.3,22.2-111.4,22.2-163.7,0c-25.1-10.7-47.8-26.2-66.9-45.6c-82.6-83.5-82.6-217.9,0-301.4
				c19.1-19.4,41.9-34.9,66.9-45.6C940.9,35.6,968.7,29.9,996.9,30 M996.9,0C864,0,756.3,108.8,756.3,243S864,486,996.9,486
				s240.6-108.8,240.6-243S1129.7,0,996.9,0L996.9,0z"/>
		</g>
		<g>
			<path class="st2" d="M1986.7,1484c-60.2,0-116.8-23.7-159.4-66.7c-88.2-89.4-88.2-233.1,0-322.5c42.6-43,99.2-66.7,159.4-66.7
				s116.8,23.7,159.4,66.7c88.2,89.4,88.2,233.1,0,322.5C2103.6,1460.3,2046.9,1484,1986.7,1484z"/>
			<path d="M1986.7,1043c28.1-0.1,56,5.6,81.8,16.7c25.1,10.7,47.8,26.2,66.9,45.6c82.6,83.5,82.6,217.9,0,301.4
				c-19.1,19.4-41.9,34.9-66.9,45.6c-52.3,22.2-111.4,22.2-163.7,0c-25.1-10.7-47.8-26.2-66.9-45.6c-82.6-83.5-82.6-217.9,0-301.4
				c19.1-19.4,41.9-34.9,66.9-45.6C1930.7,1048.6,1958.6,1042.9,1986.7,1043 M1986.7,1013c-132.9,0-240.6,108.8-240.6,243
				s107.7,243,240.6,243s240.6-108.8,240.6-243S2119.6,1013,1986.7,1013z"/>
		</g>
		<g>
			<path class="st2" d="M623.9,2123c-60.2,0-116.8-23.7-159.4-66.7c-88.2-89.4-88.2-233.1,0-322.5c42.6-43,99.2-66.7,159.4-66.7
				s116.8,23.7,159.4,66.7c88.2,89.4,88.2,233.1,0,322.5C740.8,2099.3,684.2,2123,623.9,2123z"/>
			<path d="M623.9,1682c28.1-0.1,56,5.6,81.8,16.7c25.1,10.7,47.8,26.2,66.9,45.6c82.6,83.5,82.6,217.9,0,301.4
				c-19.1,19.4-41.9,34.9-66.9,45.6c-52.3,22.2-111.4,22.2-163.7,0c-25.1-10.7-47.8-26.2-66.9-45.6c-82.6-83.5-82.6-217.9,0-301.4
				c19.1-19.4,41.9-34.9,66.9-45.6C568,1687.6,595.8,1681.9,623.9,1682 M623.9,1652c-132.9,0-240.6,108.8-240.6,243
				s107.7,243,240.6,243s240.6-108.8,240.6-243S756.8,1652,623.9,1652L623.9,1652z"/>
		</g>
		<g>
			<path class="st1" d="M240.6,646c-60.2,0-116.8-23.7-159.4-66.7C-7,489.8-7,346.2,81.1,256.7c42.6-43,99.2-66.7,159.4-66.7
				s116.8,23.7,159.4,66.7c88.2,89.4,88.2,233.1,0,322.5C357.4,622.3,300.8,646,240.6,646z"/>
			<path d="M240.6,205c28.1-0.1,56,5.6,81.8,16.7c25.1,10.7,47.8,26.2,66.9,45.6c82.6,83.5,82.6,217.9,0,301.4
				c-19.1,19.4-41.9,34.9-66.9,45.6c-52.3,22.2-111.4,22.2-163.7,0c-25.1-10.7-47.8-26.2-66.9-45.6c-82.6-83.5-82.6-217.9,0-301.4
				c19.1-19.4,41.9-34.9,66.9-45.6C184.6,210.6,212.4,204.9,240.6,205 M240.6,175C107.7,175,0,283.8,0,418s107.7,243,240.6,243
				s240.6-108.8,240.6-243S373.4,175,240.6,175L240.6,175z"/>
		</g>
	</g>
	<path class="st3" d="M910.8,1338l-179,355 M1229.8,1319l153,297 M1403.8,1115l350,74 M1333.8,794l91-81 M996.8,471l19,189
		 M430.8,548l339,265 M996.8,464l12,196 M666.8,1145l75-28 M909.8,1338l-179,355 M1228.8,1319l153,297 M1402.8,1115l350,74
		 M1332.8,794l91-81 M995.8,471l19,189 M429.8,548l339,265 M995.8,464l12,196 M665.8,1145l75-28 M909.8,1339l-179,355 M1228.8,1320
		l153,297 M1402.8,1116l350,74 M1332.8,795l91-81 M995.8,472l19,189 M429.8,549l339,265 M995.8,465l12,196 M665.8,1146l75-28
		 M909.8,1340l-179,355 M1228.8,1321l153,297 M1402.8,1117l350,74 M1332.8,796l91-81 M995.8,473l19,189 M429.8,550l339,265
		 M995.8,466l12,196 M665.8,1147l75-28 M909.8,1339l-179,355 M1228.8,1320l153,297 M1402.8,1116l350,74 M1332.8,795l91-81
		 M995.8,472l19,189 M429.8,549l339,265 M995.8,465l12,196 M665.8,1146l75-28 M909.8,1338l-179,355 M1228.8,1319l153,297
		 M1402.8,1115l350,74 M1332.8,794l91-81 M995.8,471l19,189 M429.8,548l339,265 M995.8,464l12,196 M665.8,1145l75-28"/>
</g>
</svg>
